<svg width="348" height="75" viewBox="0 0 348 75" fill="none" xmlns="http://www.w3.org/2000/svg">
<rect x="300" width="1" height="75" fill="#EFEFEF"/>
<rect x="225" width="1" height="75" fill="#EFEFEF"/>
<rect x="150" width="1" height="75" fill="#EFEFEF"/>
<rect x="75" width="1" height="75" fill="#EFEFEF"/>
<rect width="1" height="75" fill="#EFEFEF"/>
<g clip-path="url(#clip0_812_1275)">
<path d="M342.625 39.9868C342.609 39.9851 340.307 40.053 339.964 37.5859C340.345 37.3205 340.695 36.976 341.004 36.558C341.605 35.7447 341.992 34.7245 342.13 33.6209C342.177 33.578 342.217 33.5247 342.243 33.4619C342.493 32.8675 342.619 32.2329 342.619 31.5756C342.619 29.0526 340.716 27 338.376 27C337.765 27 337.171 27.1409 336.61 27.4193C336.396 27.4356 336.187 27.4732 335.986 27.5312C335.025 27.8089 334.243 28.5213 333.784 29.5373C333.339 30.5238 333.251 31.685 333.537 32.8073C333.598 33.0443 333.674 33.2773 333.766 33.4999C333.79 33.5601 333.827 33.6114 333.871 33.6537C334.095 35.3762 334.914 36.8033 336.032 37.5825C335.688 40.0538 333.387 39.9852 333.371 39.9869C331.716 40.0431 330.386 41.4065 330.386 43.0755V46.5497C330.386 46.7984 330.587 47 330.836 47H334.79H341.206H345.16C345.409 47 345.61 46.7984 345.61 46.5497V43.0755C345.61 41.4064 344.281 40.043 342.625 39.9868ZM336.236 28.3965C336.4 28.349 336.574 28.3209 336.752 28.3129C336.818 28.3099 336.882 28.2924 336.941 28.2616C337.397 28.0221 337.88 27.9007 338.376 27.9007C340.219 27.9007 341.718 29.5492 341.718 31.5756C341.718 31.6364 341.717 31.6969 341.714 31.7572C341.357 31.3942 340.86 31.1686 340.312 31.1686H337.242C337.06 31.1686 336.886 31.1113 336.741 31.0028C336.617 30.9102 336.521 30.7857 336.464 30.6428C336.375 30.4218 336.156 30.2835 335.918 30.2985C335.679 30.3137 335.478 30.4797 335.417 30.7117C335.24 31.3952 334.885 32.0247 334.398 32.5352C333.946 30.672 334.763 28.8222 336.236 28.3965ZM335.844 36.1852C335.258 35.4693 334.874 34.5026 334.753 33.4443C335.321 32.9379 335.77 32.3076 336.063 31.6086C336.107 31.6495 336.154 31.6882 336.202 31.7246C336.505 31.9501 336.864 32.0693 337.242 32.0693H340.312C340.746 32.0693 341.12 32.3298 341.287 32.7026C341.287 32.7058 341.287 32.7088 341.287 32.712C341.287 35.2541 339.812 37.3223 337.999 37.3223C337.21 37.3223 336.444 36.9185 335.844 36.1852ZM336.879 38.0247C337.236 38.1539 337.611 38.223 337.999 38.223C338.383 38.223 338.758 38.1561 339.118 38.0271C339.282 38.8861 339.76 39.6348 340.427 40.1503L338.063 43.5178C338.047 43.5398 338.026 43.5509 337.999 43.5509C337.972 43.5509 337.951 43.5397 337.935 43.5178L335.57 40.1495C336.237 39.6335 336.715 38.8843 336.879 38.0247ZM344.71 46.0993H341.206H334.79H331.286V43.0754C331.286 41.8675 332.269 40.8848 333.477 40.8848C333.493 40.8848 334.218 40.8672 334.791 40.607L337.198 44.0354C337.381 44.296 337.68 44.4516 337.999 44.4516C337.999 44.4516 337.999 44.4516 337.999 44.4516C338.317 44.4516 338.617 44.296 338.8 44.0354L341.207 40.6075C341.86 40.8848 342.503 40.8848 342.519 40.8848C343.727 40.8848 344.71 41.8675 344.71 43.0754V46.0993Z" fill="black"/>
</g>
<path d="M272.824 45.98L267.964 41.1197C269.268 39.6208 270.057 37.6652 270.057 35.5277C270.057 30.8226 266.23 27 261.529 27C256.824 27 253.001 30.8271 253.001 35.5277C253.001 40.2284 256.829 44.0554 261.529 44.0554C263.667 44.0554 265.622 43.2661 267.121 41.9623L271.982 46.8226C272.097 46.9379 272.252 47 272.403 47C272.554 47 272.709 46.9424 272.824 46.8226C273.055 46.592 273.055 46.2106 272.824 45.98ZM254.194 35.5277C254.194 31.4834 257.485 28.1973 261.525 28.1973C265.569 28.1973 268.855 31.4878 268.855 35.5277C268.855 39.5676 265.569 42.8625 261.525 42.8625C257.485 42.8625 254.194 39.5721 254.194 35.5277Z" fill="black"/>
<g clip-path="url(#clip1_812_1275)">
<path d="M197.917 30.4999C197.833 30.4166 197.75 30.3332 197.583 30.3332H181.75L181.333 28.1666C181.333 27.9999 181.083 27.8333 180.917 27.8333H178.417C178.167 27.8332 178 27.9999 178 28.2499C178 28.4999 178.167 28.6666 178.417 28.6666H180.583L182.583 38.8333C182.833 40.1666 184.083 41.1666 185.417 41.1666H195C195.25 41.1666 195.417 40.9999 195.417 40.7499C195.417 40.4999 195.25 40.3332 195 40.3332H185.5C184.833 40.3332 184.167 39.9999 183.833 39.4165L196 37.7499C196.167 37.7499 196.333 37.5832 196.333 37.4166L198 30.7499C198 30.7499 198 30.5832 197.917 30.4999ZM195.583 36.9999L183.417 38.5832L181.917 31.0832H197L195.583 36.9999Z" fill="black"/>
<path d="M185.083 42C183.917 42 183 42.9167 183 44.0833C183 45.25 183.917 46.1666 185.083 46.1666C186.25 46.1666 187.167 45.25 187.167 44.0833C187.167 42.9167 186.25 42 185.083 42ZM185.083 45.3333C184.417 45.3333 183.833 44.75 183.833 44.0833C183.833 43.4167 184.417 42.8333 185.083 42.8333C185.75 42.8333 186.333 43.4167 186.333 44.0833C186.333 44.75 185.75 45.3333 185.083 45.3333Z" fill="black"/>
<path d="M193.415 42C192.248 42 191.332 42.9167 191.332 44.0833C191.332 45.25 192.248 46.1666 193.415 46.1666C194.582 46.1666 195.498 45.25 195.498 44.0833C195.498 42.9167 194.582 42 193.415 42ZM193.415 45.3333C192.748 45.3333 192.165 44.75 192.165 44.0833C192.165 43.4167 192.748 42.8333 193.415 42.8333C194.082 42.8333 194.665 43.4167 194.665 44.0833C194.665 44.75 194.082 45.3333 193.415 45.3333Z" fill="black"/>
</g>
<path fill-rule="evenodd" clip-rule="evenodd" d="M121 28H118V45H121V28ZM118 27H117V28V45V46H118H121H122V45V28V27H121H118ZM114 36.4444H111V45H114V36.4444ZM111 35.4444H110V36.4444V45V46H111H114H115V45V36.4444V35.4444H114H111ZM104 32.2222H107V45H104V32.2222ZM103 31.2222H104H107H108V32.2222V45V46H107H104H103V45V32.2222V31.2222Z" fill="black"/>
<g clip-path="url(#clip2_812_1275)">
<path d="M32.0405 46.5278C31.9664 46.5278 31.8923 46.5049 31.83 46.4594C31.7198 46.3792 31.6646 46.2435 31.6879 46.1093L32.7945 39.659L28.108 35.0913C28.0106 34.9961 27.9755 34.854 28.0174 34.7247C28.0596 34.5951 28.1717 34.5006 28.3067 34.4809L34.7828 33.5398L37.6793 27.6712C37.7394 27.5488 37.864 27.4714 38 27.4714C38.1364 27.4714 38.261 27.5488 38.3208 27.6712L41.217 33.5398L47.6934 34.4809C47.8284 34.5006 47.9401 34.5948 47.9827 34.7247C48.0246 34.854 47.9898 34.9965 47.8921 35.0913L43.2056 39.6597L44.3118 46.1096C44.3347 46.2439 44.2796 46.3796 44.1697 46.4598C44.0594 46.5407 43.913 46.551 43.7924 46.487L38 43.4419L32.207 46.487C32.1547 46.5142 32.0975 46.5278 32.0405 46.5278ZM29.1272 35.0849L33.4288 39.278C33.513 39.36 33.5516 39.4789 33.5316 39.5949L32.5159 45.5154L37.8336 42.7202C37.9378 42.665 38.062 42.665 38.1669 42.7202L43.4838 45.5154L42.4685 39.5949C42.4485 39.4789 42.4871 39.3604 42.5713 39.278L46.8729 35.0849L40.9284 34.221C40.8117 34.2042 40.7111 34.1308 40.6589 34.0252L38 28.6389L35.3412 34.0256C35.289 34.1312 35.1884 34.2046 35.0717 34.2214L29.1272 35.0849Z" fill="black"/>
</g>
<rect x="190" y="13" width="20" height="20" rx="10" fill="url(#paint0_linear_812_1275)"/>
<path d="M202.542 20.868C202.542 21.172 202.482 21.464 202.362 21.744C202.242 22.024 202.086 22.296 201.894 22.56C201.702 22.816 201.486 23.064 201.246 23.304C201.006 23.544 200.77 23.772 200.538 23.988C200.418 24.1 200.286 24.228 200.142 24.372C200.006 24.508 199.874 24.648 199.746 24.792C199.618 24.936 199.502 25.072 199.398 25.2C199.302 25.32 199.242 25.42 199.218 25.5H202.794V27H197.25C197.234 26.912 197.226 26.8 197.226 26.664C197.226 26.528 197.226 26.432 197.226 26.376C197.226 25.992 197.286 25.64 197.406 25.32C197.534 25 197.698 24.704 197.898 24.432C198.098 24.152 198.322 23.892 198.57 23.652C198.826 23.412 199.078 23.172 199.326 22.932C199.518 22.748 199.698 22.576 199.866 22.416C200.034 22.248 200.182 22.088 200.31 21.936C200.438 21.776 200.538 21.62 200.61 21.468C200.682 21.308 200.718 21.148 200.718 20.988C200.718 20.636 200.618 20.388 200.418 20.244C200.218 20.1 199.97 20.028 199.674 20.028C199.458 20.028 199.254 20.064 199.062 20.136C198.878 20.2 198.706 20.28 198.546 20.376C198.394 20.464 198.262 20.556 198.15 20.652C198.038 20.74 197.954 20.812 197.898 20.868L197.01 19.62C197.362 19.292 197.77 19.024 198.234 18.816C198.706 18.6 199.21 18.492 199.746 18.492C200.234 18.492 200.654 18.548 201.006 18.66C201.358 18.772 201.646 18.932 201.87 19.14C202.102 19.34 202.27 19.588 202.374 19.884C202.486 20.172 202.542 20.5 202.542 20.868Z" fill="white"/>
<g filter="url(#filter0_d_812_1275)">
<rect x="114" y="13" width="20" height="20" rx="10" fill="white"/>
</g>
<path d="M122.569 27C122.617 26.36 122.729 25.688 122.905 24.984C123.089 24.272 123.313 23.584 123.577 22.92C123.841 22.248 124.129 21.628 124.441 21.06C124.761 20.484 125.073 20.016 125.377 19.656H121.333V18.684H126.625V19.608C126.361 19.912 126.069 20.332 125.749 20.868C125.429 21.396 125.125 21.992 124.837 22.656C124.557 23.312 124.313 24.016 124.105 24.768C123.905 25.512 123.781 26.256 123.733 27H122.569Z" fill="black"/>
<g filter="url(#filter1_d_812_1275)">
<rect x="39" y="13" width="20" height="20" rx="10" fill="white"/>
</g>
<path d="M48.0013 21.888C49.2093 21.936 50.0933 22.2 50.6533 22.68C51.2213 23.16 51.5053 23.812 51.5053 24.636C51.5053 25.004 51.4413 25.344 51.3133 25.656C51.1933 25.968 51.0053 26.236 50.7493 26.46C50.5013 26.684 50.1853 26.86 49.8013 26.988C49.4173 27.116 48.9613 27.18 48.4333 27.18C48.2253 27.18 48.0133 27.164 47.7973 27.132C47.5813 27.1 47.3813 27.06 47.1973 27.012C47.0133 26.964 46.8493 26.916 46.7053 26.868C46.5613 26.82 46.4573 26.78 46.3933 26.748L46.6093 25.776C46.7453 25.84 46.9653 25.924 47.2693 26.028C47.5813 26.132 47.9613 26.184 48.4093 26.184C48.7693 26.184 49.0693 26.144 49.3093 26.064C49.5573 25.984 49.7573 25.876 49.9093 25.74C50.0613 25.604 50.1693 25.448 50.2333 25.272C50.3053 25.088 50.3413 24.896 50.3413 24.696C50.3413 24.392 50.2893 24.124 50.1853 23.892C50.0813 23.652 49.8973 23.452 49.6333 23.292C49.3693 23.132 49.0173 23.012 48.5773 22.932C48.1373 22.844 47.5813 22.8 46.9093 22.8C46.9573 22.408 46.9933 22.04 47.0173 21.696C47.0493 21.352 47.0773 21.016 47.1013 20.688C47.1253 20.36 47.1453 20.036 47.1613 19.716C47.1773 19.388 47.1933 19.044 47.2093 18.684H51.2173V19.632H48.1813C48.1733 19.752 48.1613 19.916 48.1453 20.124C48.1293 20.324 48.1133 20.536 48.0973 20.76C48.0813 20.976 48.0653 21.188 48.0493 21.396C48.0333 21.604 48.0173 21.768 48.0013 21.888Z" fill="black"/>
<defs>
<filter id="filter0_d_812_1275" x="108" y="9" width="32" height="32" filterUnits="userSpaceOnUse" color-interpolation-filters="sRGB">
<feFlood flood-opacity="0" result="BackgroundImageFix"/>
<feColorMatrix in="SourceAlpha" type="matrix" values="0 0 0 0 0 0 0 0 0 0 0 0 0 0 0 0 0 0 127 0" result="hardAlpha"/>
<feOffset dy="2"/>
<feGaussianBlur stdDeviation="3"/>
<feColorMatrix type="matrix" values="0 0 0 0 0 0 0 0 0 0 0 0 0 0 0 0 0 0 0.15 0"/>
<feBlend mode="normal" in2="BackgroundImageFix" result="effect1_dropShadow_812_1275"/>
<feBlend mode="normal" in="SourceGraphic" in2="effect1_dropShadow_812_1275" result="shape"/>
</filter>
<filter id="filter1_d_812_1275" x="33" y="9" width="32" height="32" filterUnits="userSpaceOnUse" color-interpolation-filters="sRGB">
<feFlood flood-opacity="0" result="BackgroundImageFix"/>
<feColorMatrix in="SourceAlpha" type="matrix" values="0 0 0 0 0 0 0 0 0 0 0 0 0 0 0 0 0 0 127 0" result="hardAlpha"/>
<feOffset dy="2"/>
<feGaussianBlur stdDeviation="3"/>
<feColorMatrix type="matrix" values="0 0 0 0 0 0 0 0 0 0 0 0 0 0 0 0 0 0 0.15 0"/>
<feBlend mode="normal" in2="BackgroundImageFix" result="effect1_dropShadow_812_1275"/>
<feBlend mode="normal" in="SourceGraphic" in2="effect1_dropShadow_812_1275" result="shape"/>
</filter>
<linearGradient id="paint0_linear_812_1275" x1="210" y1="33" x2="190.189" y2="33" gradientUnits="userSpaceOnUse">
<stop stop-color="#8EE901"/>
<stop offset="1" stop-color="#4F9C2C"/>
</linearGradient>
<clipPath id="clip0_812_1275">
<rect width="20" height="20" fill="white" transform="translate(328 27)"/>
</clipPath>
<clipPath id="clip1_812_1275">
<rect width="20" height="20" fill="white" transform="translate(178 27)"/>
</clipPath>
<clipPath id="clip2_812_1275">
<rect width="20" height="20" fill="white" transform="translate(28 27)"/>
</clipPath>
</defs>
</svg>
