<svg width="32" height="33" viewBox="0 0 32 33" fill="none" xmlns="http://www.w3.org/2000/svg">
<g clip-path="url(#clip0_812_1256)">
<path d="M12.4955 9.31667H25.0667C25.3611 9.31667 25.6 9.07827 25.6 8.78333C25.6 8.4884 25.3611 8.25 25.0667 8.25H12.4955C12.2011 8.25 11.9622 8.4884 11.9622 8.78333C11.9622 9.07827 12.2011 9.31667 12.4955 9.31667Z" fill="black"/>
<path d="M12.4955 17.3167H25.0667C25.3611 17.3167 25.6 17.0783 25.6 16.7833C25.6 16.4884 25.3611 16.25 25.0667 16.25H12.4955C12.2011 16.25 11.9622 16.4884 11.9622 16.7833C11.9622 17.0783 12.2011 17.3167 12.4955 17.3167Z" fill="black"/>
<path d="M12.4955 25.3167H25.0667C25.3611 25.3167 25.6 25.0783 25.6 24.7833C25.6 24.4884 25.3611 24.25 25.0667 24.25H12.4955C12.2011 24.25 11.9622 24.4884 11.9622 24.7833C11.9622 25.0783 12.2011 25.3167 12.4955 25.3167Z" fill="black"/>
<path d="M31.4667 0.25H0.533333C0.238933 0.25 0 0.4884 0 0.783333V31.7167C0 32.0116 0.238933 32.25 0.533333 32.25H31.4667C31.7611 32.25 32 32.0116 32 31.7167V0.783333C32 0.4884 31.7611 0.25 31.4667 0.25ZM30.9333 31.1833H1.06667V1.31667H30.9333V31.1833Z" fill="black"/>
<path d="M6.66723 10.1028L7.96217 9.42177L9.2571 10.1028L9.01017 8.6607L10.0576 7.63883L8.60963 7.4287L7.96217 6.1167L7.3147 7.4287L5.8667 7.63883L6.9147 8.6607L6.66723 10.1028Z" fill="black"/>
<path d="M6.66723 18.147L7.96217 17.466L9.2571 18.147L9.01017 16.7049L10.0576 15.6836L8.60963 15.4729L7.96217 14.1609L7.3147 15.4729L5.8667 15.6836L6.9147 16.7049L6.66723 18.147Z" fill="black"/>
<path d="M6.66723 26.3834L7.96217 25.7023L9.2571 26.3834L9.01017 24.9412L10.0576 23.9199L8.60963 23.7092L7.96217 22.3972L7.3147 23.7092L5.8667 23.9199L6.9147 24.9412L6.66723 26.3834Z" fill="black"/>
</g>
<defs>
<clipPath id="clip0_812_1256">
<rect width="32" height="32" fill="white" transform="translate(0 0.25)"/>
</clipPath>
</defs>
</svg>
